<mxfile host="app.diagrams.net" agent="Mozilla/5.0 (Windows NT 10.0; Win64; x64) AppleWebKit/537.36 (KHTML, like Gecko) Chrome/137.0.0.0 Safari/537.36" version="27.1.6">
  <diagram name="Página-1" id="g-pokADt4NXPz5u1Eo5H">
    <mxGraphModel dx="872" dy="473" grid="1" gridSize="10" guides="1" tooltips="1" connect="1" arrows="1" fold="1" page="1" pageScale="1" pageWidth="827" pageHeight="1169" math="0" shadow="0">
      <root>
        <mxCell id="0" />
        <mxCell id="1" parent="0" />
        <mxCell id="yHt8rNILdFimbdH17l5O-4" style="edgeStyle=orthogonalEdgeStyle;rounded=0;orthogonalLoop=1;jettySize=auto;html=1;" parent="1" source="yHt8rNILdFimbdH17l5O-1" target="yHt8rNILdFimbdH17l5O-2" edge="1">
          <mxGeometry relative="1" as="geometry" />
        </mxCell>
        <mxCell id="yHt8rNILdFimbdH17l5O-1" value="INICIO" style="rounded=1;whiteSpace=wrap;html=1;" parent="1" vertex="1">
          <mxGeometry x="350" y="20" width="120" height="60" as="geometry" />
        </mxCell>
        <mxCell id="yHt8rNILdFimbdH17l5O-3" value="" style="edgeStyle=orthogonalEdgeStyle;rounded=0;orthogonalLoop=1;jettySize=auto;html=1;" parent="1" source="yHt8rNILdFimbdH17l5O-2" target="yHt8rNILdFimbdH17l5O-1" edge="1">
          <mxGeometry relative="1" as="geometry" />
        </mxCell>
        <mxCell id="yHt8rNILdFimbdH17l5O-6" value="" style="edgeStyle=orthogonalEdgeStyle;rounded=0;orthogonalLoop=1;jettySize=auto;html=1;" parent="1" source="yHt8rNILdFimbdH17l5O-2" target="yHt8rNILdFimbdH17l5O-5" edge="1">
          <mxGeometry relative="1" as="geometry" />
        </mxCell>
        <mxCell id="yHt8rNILdFimbdH17l5O-2" value="nombres = [&quot;Julián&quot;, &quot;María&quot;; &quot;Pedro&quot;]&lt;div&gt;cargos = [&quot;Auxiliar&quot;; &quot;Técnico&quot;; &quot;Analista&quot;]&lt;/div&gt;" style="shape=parallelogram;perimeter=parallelogramPerimeter;whiteSpace=wrap;html=1;fixedSize=1;" parent="1" vertex="1">
          <mxGeometry x="235" y="140" width="350" height="60" as="geometry" />
        </mxCell>
        <mxCell id="yHt8rNILdFimbdH17l5O-8" value="" style="edgeStyle=orthogonalEdgeStyle;rounded=0;orthogonalLoop=1;jettySize=auto;html=1;" parent="1" source="yHt8rNILdFimbdH17l5O-5" target="yHt8rNILdFimbdH17l5O-7" edge="1">
          <mxGeometry relative="1" as="geometry" />
        </mxCell>
        <mxCell id="yHt8rNILdFimbdH17l5O-14" value="" style="edgeStyle=orthogonalEdgeStyle;rounded=0;orthogonalLoop=1;jettySize=auto;html=1;" parent="1" source="yHt8rNILdFimbdH17l5O-5" target="yHt8rNILdFimbdH17l5O-13" edge="1">
          <mxGeometry relative="1" as="geometry" />
        </mxCell>
        <mxCell id="yHt8rNILdFimbdH17l5O-5" value="if &quot;Pedro&quot; in nombres:" style="rhombus;whiteSpace=wrap;html=1;" parent="1" vertex="1">
          <mxGeometry x="340" y="240" width="140" height="130" as="geometry" />
        </mxCell>
        <mxCell id="yHt8rNILdFimbdH17l5O-64" style="edgeStyle=orthogonalEdgeStyle;rounded=0;orthogonalLoop=1;jettySize=auto;html=1;entryX=0.5;entryY=0;entryDx=0;entryDy=0;" parent="1" source="yHt8rNILdFimbdH17l5O-7" target="yHt8rNILdFimbdH17l5O-23" edge="1">
          <mxGeometry relative="1" as="geometry">
            <Array as="points">
              <mxPoint x="655" y="430" />
              <mxPoint x="410" y="430" />
            </Array>
          </mxGeometry>
        </mxCell>
        <mxCell id="yHt8rNILdFimbdH17l5O-7" value="nombres.append(&quot;Lucía&quot;)" style="whiteSpace=wrap;html=1;" parent="1" vertex="1">
          <mxGeometry x="570" y="275" width="170" height="60" as="geometry" />
        </mxCell>
        <mxCell id="yHt8rNILdFimbdH17l5O-9" value="SI" style="text;html=1;align=center;verticalAlign=middle;whiteSpace=wrap;rounded=0;" parent="1" vertex="1">
          <mxGeometry x="490" y="245" width="60" height="30" as="geometry" />
        </mxCell>
        <mxCell id="yHt8rNILdFimbdH17l5O-12" value="NO" style="text;html=1;align=center;verticalAlign=middle;whiteSpace=wrap;rounded=0;" parent="1" vertex="1">
          <mxGeometry x="285" y="245" width="60" height="30" as="geometry" />
        </mxCell>
        <mxCell id="yHt8rNILdFimbdH17l5O-65" style="edgeStyle=orthogonalEdgeStyle;rounded=0;orthogonalLoop=1;jettySize=auto;html=1;entryX=0.5;entryY=0;entryDx=0;entryDy=0;" parent="1" source="yHt8rNILdFimbdH17l5O-13" target="yHt8rNILdFimbdH17l5O-23" edge="1">
          <mxGeometry relative="1" as="geometry">
            <Array as="points">
              <mxPoint x="190" y="430" />
              <mxPoint x="410" y="430" />
            </Array>
          </mxGeometry>
        </mxCell>
        <mxCell id="yHt8rNILdFimbdH17l5O-13" value="No se agrega" style="shape=document;whiteSpace=wrap;html=1;boundedLbl=1;" parent="1" vertex="1">
          <mxGeometry x="130" y="265" width="120" height="80" as="geometry" />
        </mxCell>
        <mxCell id="yHt8rNILdFimbdH17l5O-63" style="edgeStyle=orthogonalEdgeStyle;rounded=0;orthogonalLoop=1;jettySize=auto;html=1;" parent="1" source="yHt8rNILdFimbdH17l5O-18" target="yHt8rNILdFimbdH17l5O-29" edge="1">
          <mxGeometry relative="1" as="geometry">
            <Array as="points">
              <mxPoint x="640" y="660" />
              <mxPoint x="410" y="660" />
            </Array>
          </mxGeometry>
        </mxCell>
        <mxCell id="yHt8rNILdFimbdH17l5O-18" value="cargos.append(&quot;Coordinador&quot;)" style="whiteSpace=wrap;html=1;" parent="1" vertex="1">
          <mxGeometry x="530" y="500" width="220" height="60" as="geometry" />
        </mxCell>
        <mxCell id="yHt8rNILdFimbdH17l5O-25" style="edgeStyle=orthogonalEdgeStyle;rounded=0;orthogonalLoop=1;jettySize=auto;html=1;" parent="1" source="yHt8rNILdFimbdH17l5O-23" target="yHt8rNILdFimbdH17l5O-18" edge="1">
          <mxGeometry relative="1" as="geometry" />
        </mxCell>
        <mxCell id="yHt8rNILdFimbdH17l5O-28" value="" style="edgeStyle=orthogonalEdgeStyle;rounded=0;orthogonalLoop=1;jettySize=auto;html=1;" parent="1" source="yHt8rNILdFimbdH17l5O-23" target="yHt8rNILdFimbdH17l5O-27" edge="1">
          <mxGeometry relative="1" as="geometry" />
        </mxCell>
        <mxCell id="yHt8rNILdFimbdH17l5O-23" value="if &quot;Analista&quot; in cargos:" style="rhombus;whiteSpace=wrap;html=1;" parent="1" vertex="1">
          <mxGeometry x="340" y="460" width="140" height="140" as="geometry" />
        </mxCell>
        <mxCell id="yHt8rNILdFimbdH17l5O-62" style="edgeStyle=orthogonalEdgeStyle;rounded=0;orthogonalLoop=1;jettySize=auto;html=1;entryX=0.5;entryY=0;entryDx=0;entryDy=0;" parent="1" source="yHt8rNILdFimbdH17l5O-27" target="yHt8rNILdFimbdH17l5O-29" edge="1">
          <mxGeometry relative="1" as="geometry">
            <mxPoint x="400" y="650" as="targetPoint" />
            <Array as="points">
              <mxPoint x="190" y="660" />
              <mxPoint x="401" y="660" />
              <mxPoint x="401" y="670" />
            </Array>
          </mxGeometry>
        </mxCell>
        <mxCell id="yHt8rNILdFimbdH17l5O-27" value="No se hizo ningun cambio" style="shape=document;whiteSpace=wrap;html=1;boundedLbl=1;" parent="1" vertex="1">
          <mxGeometry x="130" y="490" width="120" height="80" as="geometry" />
        </mxCell>
        <mxCell id="yHt8rNILdFimbdH17l5O-32" value="" style="edgeStyle=orthogonalEdgeStyle;rounded=0;orthogonalLoop=1;jettySize=auto;html=1;" parent="1" source="yHt8rNILdFimbdH17l5O-29" target="yHt8rNILdFimbdH17l5O-31" edge="1">
          <mxGeometry relative="1" as="geometry" />
        </mxCell>
        <mxCell id="yHt8rNILdFimbdH17l5O-34" value="" style="edgeStyle=orthogonalEdgeStyle;rounded=0;orthogonalLoop=1;jettySize=auto;html=1;" parent="1" source="yHt8rNILdFimbdH17l5O-29" target="yHt8rNILdFimbdH17l5O-33" edge="1">
          <mxGeometry relative="1" as="geometry" />
        </mxCell>
        <mxCell id="yHt8rNILdFimbdH17l5O-66" value="" style="edgeStyle=orthogonalEdgeStyle;rounded=0;orthogonalLoop=1;jettySize=auto;html=1;" parent="1" source="yHt8rNILdFimbdH17l5O-29" target="yHt8rNILdFimbdH17l5O-31" edge="1">
          <mxGeometry relative="1" as="geometry" />
        </mxCell>
        <mxCell id="yHt8rNILdFimbdH17l5O-29" value="if &quot;Maria&quot; in nombres:" style="rhombus;whiteSpace=wrap;html=1;" parent="1" vertex="1">
          <mxGeometry x="335" y="670" width="150" height="160" as="geometry" />
        </mxCell>
        <mxCell id="yHt8rNILdFimbdH17l5O-36" value="" style="edgeStyle=orthogonalEdgeStyle;rounded=0;orthogonalLoop=1;jettySize=auto;html=1;" parent="1" source="yHt8rNILdFimbdH17l5O-31" target="yHt8rNILdFimbdH17l5O-37" edge="1">
          <mxGeometry relative="1" as="geometry">
            <mxPoint x="695" y="820" as="targetPoint" />
            <Array as="points">
              <mxPoint x="695" y="890" />
              <mxPoint x="403" y="890" />
            </Array>
          </mxGeometry>
        </mxCell>
        <mxCell id="yHt8rNILdFimbdH17l5O-31" value="nombres.remove(&quot;Maria)" style="whiteSpace=wrap;html=1;" parent="1" vertex="1">
          <mxGeometry x="580" y="720" width="230" height="60" as="geometry" />
        </mxCell>
        <mxCell id="yHt8rNILdFimbdH17l5O-67" style="edgeStyle=orthogonalEdgeStyle;rounded=0;orthogonalLoop=1;jettySize=auto;html=1;" parent="1" source="yHt8rNILdFimbdH17l5O-33" target="yHt8rNILdFimbdH17l5O-37" edge="1">
          <mxGeometry relative="1" as="geometry">
            <Array as="points">
              <mxPoint x="240" y="890" />
              <mxPoint x="403" y="890" />
            </Array>
          </mxGeometry>
        </mxCell>
        <mxCell id="yHt8rNILdFimbdH17l5O-33" value="No se hizo ningun cambio" style="shape=document;whiteSpace=wrap;html=1;boundedLbl=1;" parent="1" vertex="1">
          <mxGeometry x="180" y="720" width="120" height="80" as="geometry" />
        </mxCell>
        <mxCell id="yHt8rNILdFimbdH17l5O-39" value="" style="edgeStyle=orthogonalEdgeStyle;rounded=0;orthogonalLoop=1;jettySize=auto;html=1;" parent="1" source="yHt8rNILdFimbdH17l5O-37" target="yHt8rNILdFimbdH17l5O-38" edge="1">
          <mxGeometry relative="1" as="geometry" />
        </mxCell>
        <mxCell id="yHt8rNILdFimbdH17l5O-50" style="edgeStyle=orthogonalEdgeStyle;rounded=0;orthogonalLoop=1;jettySize=auto;html=1;" parent="1" source="yHt8rNILdFimbdH17l5O-37" target="yHt8rNILdFimbdH17l5O-49" edge="1">
          <mxGeometry relative="1" as="geometry" />
        </mxCell>
        <mxCell id="yHt8rNILdFimbdH17l5O-70" value="" style="edgeStyle=orthogonalEdgeStyle;rounded=0;orthogonalLoop=1;jettySize=auto;html=1;" parent="1" source="yHt8rNILdFimbdH17l5O-37" target="yHt8rNILdFimbdH17l5O-49" edge="1">
          <mxGeometry relative="1" as="geometry" />
        </mxCell>
        <mxCell id="yHt8rNILdFimbdH17l5O-37" value="if len(nombres) &amp;gt; 3:" style="rhombus;whiteSpace=wrap;html=1;" parent="1" vertex="1">
          <mxGeometry x="300" y="910" width="205" height="180" as="geometry" />
        </mxCell>
        <mxCell id="yHt8rNILdFimbdH17l5O-68" style="edgeStyle=orthogonalEdgeStyle;rounded=0;orthogonalLoop=1;jettySize=auto;html=1;" parent="1" source="yHt8rNILdFimbdH17l5O-147" target="yHt8rNILdFimbdH17l5O-40" edge="1">
          <mxGeometry relative="1" as="geometry">
            <Array as="points">
              <mxPoint x="398" y="1120" />
            </Array>
          </mxGeometry>
        </mxCell>
        <mxCell id="yHt8rNILdFimbdH17l5O-38" value="nombres.pop(0)" style="whiteSpace=wrap;html=1;" parent="1" vertex="1">
          <mxGeometry x="650" y="970" width="120" height="60" as="geometry" />
        </mxCell>
        <mxCell id="yHt8rNILdFimbdH17l5O-71" style="edgeStyle=orthogonalEdgeStyle;rounded=0;orthogonalLoop=1;jettySize=auto;html=1;entryX=1;entryY=0.5;entryDx=0;entryDy=0;" parent="1" source="yHt8rNILdFimbdH17l5O-40" target="yHt8rNILdFimbdH17l5O-47" edge="1">
          <mxGeometry relative="1" as="geometry" />
        </mxCell>
        <mxCell id="yHt8rNILdFimbdH17l5O-72" style="edgeStyle=orthogonalEdgeStyle;rounded=0;orthogonalLoop=1;jettySize=auto;html=1;" parent="1" source="yHt8rNILdFimbdH17l5O-40" target="yHt8rNILdFimbdH17l5O-42" edge="1">
          <mxGeometry relative="1" as="geometry">
            <mxPoint x="600" y="1220" as="targetPoint" />
          </mxGeometry>
        </mxCell>
        <mxCell id="yHt8rNILdFimbdH17l5O-40" value="if &quot;Juan&quot; in nombres:" style="rhombus;whiteSpace=wrap;html=1;" parent="1" vertex="1">
          <mxGeometry x="305" y="1130" width="185" height="180" as="geometry" />
        </mxCell>
        <mxCell id="yHt8rNILdFimbdH17l5O-73" style="edgeStyle=orthogonalEdgeStyle;rounded=0;orthogonalLoop=1;jettySize=auto;html=1;entryX=0.5;entryY=0;entryDx=0;entryDy=0;" parent="1" source="yHt8rNILdFimbdH17l5O-42" target="yHt8rNILdFimbdH17l5O-52" edge="1">
          <mxGeometry relative="1" as="geometry">
            <Array as="points">
              <mxPoint x="670" y="1320" />
              <mxPoint x="393" y="1320" />
            </Array>
          </mxGeometry>
        </mxCell>
        <mxCell id="yHt8rNILdFimbdH17l5O-42" value="nombres[0] = &quot;Julián&quot;" style="whiteSpace=wrap;html=1;" parent="1" vertex="1">
          <mxGeometry x="610" y="1180" width="120" height="60" as="geometry" />
        </mxCell>
        <mxCell id="yHt8rNILdFimbdH17l5O-74" style="edgeStyle=orthogonalEdgeStyle;rounded=0;orthogonalLoop=1;jettySize=auto;html=1;" parent="1" source="yHt8rNILdFimbdH17l5O-47" target="yHt8rNILdFimbdH17l5O-52" edge="1">
          <mxGeometry relative="1" as="geometry">
            <Array as="points">
              <mxPoint x="175" y="1320" />
              <mxPoint x="393" y="1320" />
            </Array>
          </mxGeometry>
        </mxCell>
        <mxCell id="yHt8rNILdFimbdH17l5O-47" value="No se hizo ningun cambio" style="shape=document;whiteSpace=wrap;html=1;boundedLbl=1;" parent="1" vertex="1">
          <mxGeometry x="115" y="1180" width="120" height="80" as="geometry" />
        </mxCell>
        <mxCell id="yHt8rNILdFimbdH17l5O-69" style="edgeStyle=orthogonalEdgeStyle;rounded=0;orthogonalLoop=1;jettySize=auto;html=1;" parent="1" source="yHt8rNILdFimbdH17l5O-49" target="yHt8rNILdFimbdH17l5O-40" edge="1">
          <mxGeometry relative="1" as="geometry">
            <Array as="points">
              <mxPoint x="190" y="1120" />
              <mxPoint x="398" y="1120" />
            </Array>
          </mxGeometry>
        </mxCell>
        <mxCell id="yHt8rNILdFimbdH17l5O-49" value="No se hizo ningun cambio" style="shape=document;whiteSpace=wrap;html=1;boundedLbl=1;" parent="1" vertex="1">
          <mxGeometry x="130" y="960" width="120" height="80" as="geometry" />
        </mxCell>
        <mxCell id="yHt8rNILdFimbdH17l5O-54" value="" style="edgeStyle=orthogonalEdgeStyle;rounded=0;orthogonalLoop=1;jettySize=auto;html=1;" parent="1" source="yHt8rNILdFimbdH17l5O-52" target="yHt8rNILdFimbdH17l5O-53" edge="1">
          <mxGeometry relative="1" as="geometry" />
        </mxCell>
        <mxCell id="yHt8rNILdFimbdH17l5O-52" value="equipo1 = [nombres[0], nombres[1]]&lt;div&gt;&lt;br&gt;&lt;/div&gt;" style="shape=parallelogram;perimeter=parallelogramPerimeter;whiteSpace=wrap;html=1;fixedSize=1;" parent="1" vertex="1">
          <mxGeometry x="225" y="1350" width="350" height="60" as="geometry" />
        </mxCell>
        <mxCell id="yHt8rNILdFimbdH17l5O-56" value="" style="edgeStyle=orthogonalEdgeStyle;rounded=0;orthogonalLoop=1;jettySize=auto;html=1;" parent="1" source="yHt8rNILdFimbdH17l5O-53" target="yHt8rNILdFimbdH17l5O-55" edge="1">
          <mxGeometry relative="1" as="geometry" />
        </mxCell>
        <mxCell id="yHt8rNILdFimbdH17l5O-76" style="edgeStyle=orthogonalEdgeStyle;rounded=0;orthogonalLoop=1;jettySize=auto;html=1;" parent="1" source="yHt8rNILdFimbdH17l5O-53" edge="1">
          <mxGeometry relative="1" as="geometry">
            <mxPoint x="220" y="1580" as="targetPoint" />
          </mxGeometry>
        </mxCell>
        <mxCell id="yHt8rNILdFimbdH17l5O-53" value="if &quot;Lucía&quot; in equipo1:&amp;nbsp;" style="rhombus;whiteSpace=wrap;html=1;" parent="1" vertex="1">
          <mxGeometry x="288.75" y="1490" width="207.5" height="180" as="geometry" />
        </mxCell>
        <mxCell id="yHt8rNILdFimbdH17l5O-81" style="edgeStyle=orthogonalEdgeStyle;rounded=0;orthogonalLoop=1;jettySize=auto;html=1;entryX=0.5;entryY=0;entryDx=0;entryDy=0;" parent="1" source="yHt8rNILdFimbdH17l5O-55" target="yHt8rNILdFimbdH17l5O-78" edge="1">
          <mxGeometry relative="1" as="geometry">
            <Array as="points">
              <mxPoint x="680" y="1730" />
              <mxPoint x="430" y="1730" />
              <mxPoint x="430" y="1720" />
            </Array>
          </mxGeometry>
        </mxCell>
        <mxCell id="yHt8rNILdFimbdH17l5O-55" value="tupla1 = (&quot;Lucía, &quot;Coordinador&quot;)" style="whiteSpace=wrap;html=1;" parent="1" vertex="1">
          <mxGeometry x="620" y="1550" width="120" height="60" as="geometry" />
        </mxCell>
        <mxCell id="yHt8rNILdFimbdH17l5O-80" style="edgeStyle=orthogonalEdgeStyle;rounded=0;orthogonalLoop=1;jettySize=auto;html=1;" parent="1" source="yHt8rNILdFimbdH17l5O-75" target="yHt8rNILdFimbdH17l5O-78" edge="1">
          <mxGeometry relative="1" as="geometry">
            <Array as="points">
              <mxPoint x="158" y="1730" />
            </Array>
          </mxGeometry>
        </mxCell>
        <mxCell id="yHt8rNILdFimbdH17l5O-75" value="No se hizo ningun cambio" style="shape=document;whiteSpace=wrap;html=1;boundedLbl=1;" parent="1" vertex="1">
          <mxGeometry x="97.5" y="1550" width="120" height="80" as="geometry" />
        </mxCell>
        <mxCell id="yHt8rNILdFimbdH17l5O-83" value="" style="edgeStyle=orthogonalEdgeStyle;rounded=0;orthogonalLoop=1;jettySize=auto;html=1;" parent="1" source="yHt8rNILdFimbdH17l5O-78" target="yHt8rNILdFimbdH17l5O-82" edge="1">
          <mxGeometry relative="1" as="geometry" />
        </mxCell>
        <mxCell id="yHt8rNILdFimbdH17l5O-85" style="edgeStyle=orthogonalEdgeStyle;rounded=0;orthogonalLoop=1;jettySize=auto;html=1;" parent="1" source="yHt8rNILdFimbdH17l5O-78" target="yHt8rNILdFimbdH17l5O-84" edge="1">
          <mxGeometry relative="1" as="geometry" />
        </mxCell>
        <mxCell id="yHt8rNILdFimbdH17l5O-78" value="if &quot;Auxiliar&quot; in puestos_clave:" style="rhombus;whiteSpace=wrap;html=1;" parent="1" vertex="1">
          <mxGeometry x="293.75" y="1760" width="207.5" height="180" as="geometry" />
        </mxCell>
        <mxCell id="yHt8rNILdFimbdH17l5O-88" style="edgeStyle=orthogonalEdgeStyle;rounded=0;orthogonalLoop=1;jettySize=auto;html=1;" parent="1" source="yHt8rNILdFimbdH17l5O-82" target="yHt8rNILdFimbdH17l5O-86" edge="1">
          <mxGeometry relative="1" as="geometry">
            <Array as="points">
              <mxPoint x="723" y="2010" />
            </Array>
          </mxGeometry>
        </mxCell>
        <mxCell id="yHt8rNILdFimbdH17l5O-82" value="puestos_clave.remove(&quot;Auxiliar&quot;)" style="whiteSpace=wrap;html=1;" parent="1" vertex="1">
          <mxGeometry x="625" y="1820" width="195" height="60" as="geometry" />
        </mxCell>
        <mxCell id="yHt8rNILdFimbdH17l5O-87" style="edgeStyle=orthogonalEdgeStyle;rounded=0;orthogonalLoop=1;jettySize=auto;html=1;" parent="1" source="yHt8rNILdFimbdH17l5O-84" target="yHt8rNILdFimbdH17l5O-86" edge="1">
          <mxGeometry relative="1" as="geometry">
            <Array as="points">
              <mxPoint x="158" y="2020" />
            </Array>
          </mxGeometry>
        </mxCell>
        <mxCell id="yHt8rNILdFimbdH17l5O-84" value="No se hizo ningun cambio" style="shape=document;whiteSpace=wrap;html=1;boundedLbl=1;" parent="1" vertex="1">
          <mxGeometry x="97.5" y="1810" width="120" height="80" as="geometry" />
        </mxCell>
        <mxCell id="yHt8rNILdFimbdH17l5O-90" value="" style="edgeStyle=orthogonalEdgeStyle;rounded=0;orthogonalLoop=1;jettySize=auto;html=1;" parent="1" source="yHt8rNILdFimbdH17l5O-86" edge="1">
          <mxGeometry relative="1" as="geometry">
            <mxPoint x="640" y="2100" as="targetPoint" />
          </mxGeometry>
        </mxCell>
        <mxCell id="yHt8rNILdFimbdH17l5O-86" value="if &quot;Julián&quot; in nombres:" style="rhombus;whiteSpace=wrap;html=1;" parent="1" vertex="1">
          <mxGeometry x="293.75" y="2010" width="207.5" height="180" as="geometry" />
        </mxCell>
        <mxCell id="yHt8rNILdFimbdH17l5O-95" style="edgeStyle=orthogonalEdgeStyle;rounded=0;orthogonalLoop=1;jettySize=auto;html=1;" parent="1" target="yHt8rNILdFimbdH17l5O-93" edge="1">
          <mxGeometry relative="1" as="geometry">
            <mxPoint x="777.5" y="2145" as="sourcePoint" />
            <Array as="points">
              <mxPoint x="778" y="2260" />
            </Array>
          </mxGeometry>
        </mxCell>
        <mxCell id="yHt8rNILdFimbdH17l5O-89" value="empleado = {&lt;div&gt;&quot;nombre&quot;: &quot;Julián&quot;,&lt;/div&gt;&lt;div&gt;&quot;cargo&quot;: &quot;Técnico&quot;,&lt;/div&gt;&lt;div&gt;&quot;activo&quot;: True&lt;/div&gt;&lt;div&gt;}&lt;/div&gt;" style="whiteSpace=wrap;html=1;" parent="1" vertex="1">
          <mxGeometry x="640" y="2055" width="275" height="90" as="geometry" />
        </mxCell>
        <mxCell id="yHt8rNILdFimbdH17l5O-94" style="edgeStyle=orthogonalEdgeStyle;rounded=0;orthogonalLoop=1;jettySize=auto;html=1;" parent="1" source="yHt8rNILdFimbdH17l5O-91" target="yHt8rNILdFimbdH17l5O-93" edge="1">
          <mxGeometry relative="1" as="geometry">
            <Array as="points">
              <mxPoint x="150" y="2260" />
            </Array>
          </mxGeometry>
        </mxCell>
        <mxCell id="yHt8rNILdFimbdH17l5O-91" value="No se hizo ningun cambio" style="shape=document;whiteSpace=wrap;html=1;boundedLbl=1;" parent="1" vertex="1">
          <mxGeometry x="90" y="2070" width="120" height="80" as="geometry" />
        </mxCell>
        <mxCell id="yHt8rNILdFimbdH17l5O-92" style="edgeStyle=orthogonalEdgeStyle;rounded=0;orthogonalLoop=1;jettySize=auto;html=1;entryX=1.008;entryY=0.388;entryDx=0;entryDy=0;entryPerimeter=0;" parent="1" source="yHt8rNILdFimbdH17l5O-86" target="yHt8rNILdFimbdH17l5O-91" edge="1">
          <mxGeometry relative="1" as="geometry" />
        </mxCell>
        <mxCell id="yHt8rNILdFimbdH17l5O-97" value="" style="edgeStyle=orthogonalEdgeStyle;rounded=0;orthogonalLoop=1;jettySize=auto;html=1;" parent="1" source="yHt8rNILdFimbdH17l5O-93" target="yHt8rNILdFimbdH17l5O-96" edge="1">
          <mxGeometry relative="1" as="geometry" />
        </mxCell>
        <mxCell id="yHt8rNILdFimbdH17l5O-99" style="edgeStyle=orthogonalEdgeStyle;rounded=0;orthogonalLoop=1;jettySize=auto;html=1;" parent="1" source="yHt8rNILdFimbdH17l5O-93" target="yHt8rNILdFimbdH17l5O-98" edge="1">
          <mxGeometry relative="1" as="geometry" />
        </mxCell>
        <mxCell id="yHt8rNILdFimbdH17l5O-93" value="if empleado:" style="rhombus;whiteSpace=wrap;html=1;" parent="1" vertex="1">
          <mxGeometry x="293.75" y="2250" width="207.5" height="180" as="geometry" />
        </mxCell>
        <mxCell id="yHt8rNILdFimbdH17l5O-102" style="edgeStyle=orthogonalEdgeStyle;rounded=0;orthogonalLoop=1;jettySize=auto;html=1;entryX=0.5;entryY=0;entryDx=0;entryDy=0;" parent="1" source="yHt8rNILdFimbdH17l5O-96" target="yHt8rNILdFimbdH17l5O-100" edge="1">
          <mxGeometry relative="1" as="geometry">
            <Array as="points">
              <mxPoint x="685" y="2480" />
              <mxPoint x="393" y="2480" />
            </Array>
          </mxGeometry>
        </mxCell>
        <mxCell id="yHt8rNILdFimbdH17l5O-96" value="empleado[&quot;contrato&quot;] = &quot;Indefinido&quot;" style="whiteSpace=wrap;html=1;" parent="1" vertex="1">
          <mxGeometry x="625" y="2310" width="120" height="60" as="geometry" />
        </mxCell>
        <mxCell id="yHt8rNILdFimbdH17l5O-101" style="edgeStyle=orthogonalEdgeStyle;rounded=0;orthogonalLoop=1;jettySize=auto;html=1;entryX=0.5;entryY=0;entryDx=0;entryDy=0;" parent="1" source="yHt8rNILdFimbdH17l5O-98" target="yHt8rNILdFimbdH17l5O-100" edge="1">
          <mxGeometry relative="1" as="geometry">
            <Array as="points">
              <mxPoint x="150" y="2480" />
              <mxPoint x="393" y="2480" />
            </Array>
          </mxGeometry>
        </mxCell>
        <mxCell id="yHt8rNILdFimbdH17l5O-98" value="No se hizo ningun cambio" style="shape=document;whiteSpace=wrap;html=1;boundedLbl=1;" parent="1" vertex="1">
          <mxGeometry x="90" y="2300" width="120" height="80" as="geometry" />
        </mxCell>
        <mxCell id="yHt8rNILdFimbdH17l5O-104" value="" style="edgeStyle=orthogonalEdgeStyle;rounded=0;orthogonalLoop=1;jettySize=auto;html=1;" parent="1" source="yHt8rNILdFimbdH17l5O-100" target="yHt8rNILdFimbdH17l5O-103" edge="1">
          <mxGeometry relative="1" as="geometry" />
        </mxCell>
        <mxCell id="yHt8rNILdFimbdH17l5O-106" value="" style="edgeStyle=orthogonalEdgeStyle;rounded=0;orthogonalLoop=1;jettySize=auto;html=1;" parent="1" source="yHt8rNILdFimbdH17l5O-100" target="yHt8rNILdFimbdH17l5O-105" edge="1">
          <mxGeometry relative="1" as="geometry" />
        </mxCell>
        <mxCell id="yHt8rNILdFimbdH17l5O-100" value="if &quot;Analista&quot; in cargos:" style="rhombus;whiteSpace=wrap;html=1;" parent="1" vertex="1">
          <mxGeometry x="288.75" y="2490" width="207.5" height="180" as="geometry" />
        </mxCell>
        <mxCell id="yHt8rNILdFimbdH17l5O-103" value="cargos.append(&quot;Practicante&quot;)" style="whiteSpace=wrap;html=1;" parent="1" vertex="1">
          <mxGeometry x="620" y="2550" width="190" height="60" as="geometry" />
        </mxCell>
        <mxCell id="yHt8rNILdFimbdH17l5O-114" style="edgeStyle=orthogonalEdgeStyle;rounded=0;orthogonalLoop=1;jettySize=auto;html=1;entryX=0.5;entryY=0;entryDx=0;entryDy=0;" parent="1" source="yHt8rNILdFimbdH17l5O-105" target="yHt8rNILdFimbdH17l5O-108" edge="1">
          <mxGeometry relative="1" as="geometry">
            <Array as="points">
              <mxPoint x="150" y="2720" />
              <mxPoint x="393" y="2720" />
            </Array>
          </mxGeometry>
        </mxCell>
        <mxCell id="yHt8rNILdFimbdH17l5O-105" value="No se hizo ningun cambio" style="shape=document;whiteSpace=wrap;html=1;boundedLbl=1;" parent="1" vertex="1">
          <mxGeometry x="90" y="2540" width="120" height="80" as="geometry" />
        </mxCell>
        <mxCell id="yHt8rNILdFimbdH17l5O-110" value="" style="edgeStyle=orthogonalEdgeStyle;rounded=0;orthogonalLoop=1;jettySize=auto;html=1;" parent="1" source="yHt8rNILdFimbdH17l5O-108" target="yHt8rNILdFimbdH17l5O-109" edge="1">
          <mxGeometry relative="1" as="geometry" />
        </mxCell>
        <mxCell id="yHt8rNILdFimbdH17l5O-112" style="edgeStyle=orthogonalEdgeStyle;rounded=0;orthogonalLoop=1;jettySize=auto;html=1;" parent="1" source="yHt8rNILdFimbdH17l5O-108" target="yHt8rNILdFimbdH17l5O-111" edge="1">
          <mxGeometry relative="1" as="geometry" />
        </mxCell>
        <mxCell id="yHt8rNILdFimbdH17l5O-108" value="if &quot;Lucía&quot; not in nombres:" style="rhombus;whiteSpace=wrap;html=1;" parent="1" vertex="1">
          <mxGeometry x="288.75" y="2730" width="207.5" height="180" as="geometry" />
        </mxCell>
        <mxCell id="yHt8rNILdFimbdH17l5O-117" style="edgeStyle=orthogonalEdgeStyle;rounded=0;orthogonalLoop=1;jettySize=auto;html=1;entryX=0.5;entryY=0;entryDx=0;entryDy=0;" parent="1" source="yHt8rNILdFimbdH17l5O-109" target="yHt8rNILdFimbdH17l5O-116" edge="1">
          <mxGeometry relative="1" as="geometry">
            <mxPoint x="670" y="3020" as="targetPoint" />
            <Array as="points">
              <mxPoint x="723" y="2980" />
              <mxPoint x="400" y="2980" />
            </Array>
          </mxGeometry>
        </mxCell>
        <mxCell id="yHt8rNILdFimbdH17l5O-109" value="nombres.append(&quot;Lucía&quot;)" style="whiteSpace=wrap;html=1;" parent="1" vertex="1">
          <mxGeometry x="627.5" y="2790" width="190" height="60" as="geometry" />
        </mxCell>
        <mxCell id="yHt8rNILdFimbdH17l5O-115" style="edgeStyle=orthogonalEdgeStyle;rounded=0;orthogonalLoop=1;jettySize=auto;html=1;entryX=0.5;entryY=0;entryDx=0;entryDy=0;" parent="1" source="yHt8rNILdFimbdH17l5O-111" target="yHt8rNILdFimbdH17l5O-116" edge="1">
          <mxGeometry relative="1" as="geometry">
            <mxPoint x="150" y="3050" as="targetPoint" />
            <Array as="points">
              <mxPoint x="150" y="2980" />
              <mxPoint x="400" y="2980" />
            </Array>
          </mxGeometry>
        </mxCell>
        <mxCell id="yHt8rNILdFimbdH17l5O-111" value="No se hizo ningun cambio" style="shape=document;whiteSpace=wrap;html=1;boundedLbl=1;" parent="1" vertex="1">
          <mxGeometry x="90" y="2780" width="120" height="80" as="geometry" />
        </mxCell>
        <mxCell id="yHt8rNILdFimbdH17l5O-113" style="edgeStyle=orthogonalEdgeStyle;rounded=0;orthogonalLoop=1;jettySize=auto;html=1;entryX=0.512;entryY=0.044;entryDx=0;entryDy=0;entryPerimeter=0;" parent="1" source="yHt8rNILdFimbdH17l5O-103" target="yHt8rNILdFimbdH17l5O-108" edge="1">
          <mxGeometry relative="1" as="geometry">
            <Array as="points">
              <mxPoint x="715" y="2720" />
              <mxPoint x="395" y="2720" />
            </Array>
          </mxGeometry>
        </mxCell>
        <mxCell id="yHt8rNILdFimbdH17l5O-119" value="" style="edgeStyle=orthogonalEdgeStyle;rounded=0;orthogonalLoop=1;jettySize=auto;html=1;" parent="1" source="yHt8rNILdFimbdH17l5O-116" target="yHt8rNILdFimbdH17l5O-118" edge="1">
          <mxGeometry relative="1" as="geometry" />
        </mxCell>
        <mxCell id="yHt8rNILdFimbdH17l5O-116" value="print(nombres)&lt;div&gt;print(cargos)&lt;/div&gt;&lt;div&gt;print(equipo1)&lt;/div&gt;&lt;div&gt;print(puestos_clave)&lt;/div&gt;&lt;div&gt;print(empleado)&lt;/div&gt;&lt;div&gt;print(tupla1)&lt;/div&gt;" style="shape=document;whiteSpace=wrap;html=1;boundedLbl=1;" parent="1" vertex="1">
          <mxGeometry x="300" y="3030" width="200" height="170" as="geometry" />
        </mxCell>
        <mxCell id="yHt8rNILdFimbdH17l5O-118" value="FIN" style="rounded=1;whiteSpace=wrap;html=1;" parent="1" vertex="1">
          <mxGeometry x="340" y="3335" width="120" height="60" as="geometry" />
        </mxCell>
        <mxCell id="yHt8rNILdFimbdH17l5O-120" value="puestos_clave = [cargos[-3], cargos[-2]]" style="shape=parallelogram;perimeter=parallelogramPerimeter;whiteSpace=wrap;html=1;fixedSize=1;" parent="1" vertex="1">
          <mxGeometry x="227.5" y="1420" width="350" height="60" as="geometry" />
        </mxCell>
        <mxCell id="yHt8rNILdFimbdH17l5O-123" value="NO" style="text;html=1;align=center;verticalAlign=middle;whiteSpace=wrap;rounded=0;" parent="1" vertex="1">
          <mxGeometry x="280" y="470" width="60" height="30" as="geometry" />
        </mxCell>
        <mxCell id="yHt8rNILdFimbdH17l5O-124" value="NO" style="text;html=1;align=center;verticalAlign=middle;whiteSpace=wrap;rounded=0;" parent="1" vertex="1">
          <mxGeometry x="275" y="680" width="60" height="30" as="geometry" />
        </mxCell>
        <mxCell id="yHt8rNILdFimbdH17l5O-125" value="NO" style="text;html=1;align=center;verticalAlign=middle;whiteSpace=wrap;rounded=0;" parent="1" vertex="1">
          <mxGeometry x="270" y="930" width="60" height="30" as="geometry" />
        </mxCell>
        <mxCell id="yHt8rNILdFimbdH17l5O-126" value="NO" style="text;html=1;align=center;verticalAlign=middle;whiteSpace=wrap;rounded=0;" parent="1" vertex="1">
          <mxGeometry x="270" y="1169" width="60" height="30" as="geometry" />
        </mxCell>
        <mxCell id="yHt8rNILdFimbdH17l5O-127" value="NO" style="text;html=1;align=center;verticalAlign=middle;whiteSpace=wrap;rounded=0;" parent="1" vertex="1">
          <mxGeometry x="240" y="1510" width="60" height="30" as="geometry" />
        </mxCell>
        <mxCell id="yHt8rNILdFimbdH17l5O-128" value="NO" style="text;html=1;align=center;verticalAlign=middle;whiteSpace=wrap;rounded=0;" parent="1" vertex="1">
          <mxGeometry x="245" y="1780" width="60" height="30" as="geometry" />
        </mxCell>
        <mxCell id="yHt8rNILdFimbdH17l5O-129" value="NO" style="text;html=1;align=center;verticalAlign=middle;whiteSpace=wrap;rounded=0;" parent="1" vertex="1">
          <mxGeometry x="240" y="2050" width="60" height="30" as="geometry" />
        </mxCell>
        <mxCell id="yHt8rNILdFimbdH17l5O-130" value="NO" style="text;html=1;align=center;verticalAlign=middle;whiteSpace=wrap;rounded=0;" parent="1" vertex="1">
          <mxGeometry x="235" y="2290" width="60" height="30" as="geometry" />
        </mxCell>
        <mxCell id="yHt8rNILdFimbdH17l5O-131" value="NO" style="text;html=1;align=center;verticalAlign=middle;whiteSpace=wrap;rounded=0;" parent="1" vertex="1">
          <mxGeometry x="235" y="2510" width="60" height="30" as="geometry" />
        </mxCell>
        <mxCell id="yHt8rNILdFimbdH17l5O-132" value="NO" style="text;html=1;align=center;verticalAlign=middle;whiteSpace=wrap;rounded=0;" parent="1" vertex="1">
          <mxGeometry x="260" y="2750" width="60" height="30" as="geometry" />
        </mxCell>
        <mxCell id="yHt8rNILdFimbdH17l5O-133" value="SI" style="text;html=1;align=center;verticalAlign=middle;whiteSpace=wrap;rounded=0;" parent="1" vertex="1">
          <mxGeometry x="505" y="460" width="60" height="30" as="geometry" />
        </mxCell>
        <mxCell id="yHt8rNILdFimbdH17l5O-134" value="SI" style="text;html=1;align=center;verticalAlign=middle;whiteSpace=wrap;rounded=0;" parent="1" vertex="1">
          <mxGeometry x="525" y="680" width="60" height="30" as="geometry" />
        </mxCell>
        <mxCell id="yHt8rNILdFimbdH17l5O-135" value="SI" style="text;html=1;align=center;verticalAlign=middle;whiteSpace=wrap;rounded=0;" parent="1" vertex="1">
          <mxGeometry x="550" y="920" width="60" height="30" as="geometry" />
        </mxCell>
        <mxCell id="yHt8rNILdFimbdH17l5O-136" value="SI" style="text;html=1;align=center;verticalAlign=middle;whiteSpace=wrap;rounded=0;" parent="1" vertex="1">
          <mxGeometry x="550" y="1169" width="60" height="30" as="geometry" />
        </mxCell>
        <mxCell id="yHt8rNILdFimbdH17l5O-137" value="SI" style="text;html=1;align=center;verticalAlign=middle;whiteSpace=wrap;rounded=0;" parent="1" vertex="1">
          <mxGeometry x="540" y="1510" width="60" height="30" as="geometry" />
        </mxCell>
        <mxCell id="yHt8rNILdFimbdH17l5O-138" value="SI" style="text;html=1;align=center;verticalAlign=middle;whiteSpace=wrap;rounded=0;" parent="1" vertex="1">
          <mxGeometry x="540" y="1780" width="60" height="30" as="geometry" />
        </mxCell>
        <mxCell id="yHt8rNILdFimbdH17l5O-139" value="SI" style="text;html=1;align=center;verticalAlign=middle;whiteSpace=wrap;rounded=0;" parent="1" vertex="1">
          <mxGeometry x="560" y="2050" width="60" height="30" as="geometry" />
        </mxCell>
        <mxCell id="yHt8rNILdFimbdH17l5O-140" value="SI" style="text;html=1;align=center;verticalAlign=middle;whiteSpace=wrap;rounded=0;" parent="1" vertex="1">
          <mxGeometry x="530" y="2300" width="60" height="30" as="geometry" />
        </mxCell>
        <mxCell id="yHt8rNILdFimbdH17l5O-141" value="SI" style="text;html=1;align=center;verticalAlign=middle;whiteSpace=wrap;rounded=0;" parent="1" vertex="1">
          <mxGeometry x="560" y="2510" width="60" height="30" as="geometry" />
        </mxCell>
        <mxCell id="yHt8rNILdFimbdH17l5O-142" value="SI" style="text;html=1;align=center;verticalAlign=middle;whiteSpace=wrap;rounded=0;" parent="1" vertex="1">
          <mxGeometry x="540" y="2750" width="60" height="30" as="geometry" />
        </mxCell>
        <mxCell id="yHt8rNILdFimbdH17l5O-144" value="print(&quot;Se agregó Lucía&quot;)" style="shape=document;whiteSpace=wrap;html=1;boundedLbl=1;" parent="1" vertex="1">
          <mxGeometry x="560" y="345" width="210" height="80" as="geometry" />
        </mxCell>
        <mxCell id="yHt8rNILdFimbdH17l5O-145" value="print(&quot;Se agregó Coordinador&quot;)" style="shape=document;whiteSpace=wrap;html=1;boundedLbl=1;" parent="1" vertex="1">
          <mxGeometry x="530" y="570" width="220" height="80" as="geometry" />
        </mxCell>
        <mxCell id="yHt8rNILdFimbdH17l5O-146" value="print(&quot;Se removió María&quot;)" style="shape=document;whiteSpace=wrap;html=1;boundedLbl=1;" parent="1" vertex="1">
          <mxGeometry x="600" y="790" width="210" height="80" as="geometry" />
        </mxCell>
        <mxCell id="yHt8rNILdFimbdH17l5O-148" value="" style="edgeStyle=orthogonalEdgeStyle;rounded=0;orthogonalLoop=1;jettySize=auto;html=1;" parent="1" source="yHt8rNILdFimbdH17l5O-38" target="yHt8rNILdFimbdH17l5O-147" edge="1">
          <mxGeometry relative="1" as="geometry">
            <mxPoint x="710" y="1030" as="sourcePoint" />
            <mxPoint x="398" y="1130" as="targetPoint" />
            <Array as="points">
              <mxPoint x="710" y="1120" />
            </Array>
          </mxGeometry>
        </mxCell>
        <mxCell id="yHt8rNILdFimbdH17l5O-147" value="print(&quot;Se removió&quot;)" style="shape=document;whiteSpace=wrap;html=1;boundedLbl=1;" parent="1" vertex="1">
          <mxGeometry x="627.5" y="1040" width="210" height="80" as="geometry" />
        </mxCell>
        <mxCell id="yHt8rNILdFimbdH17l5O-149" value="print(&quot;Se cambió a Juan por Julián&quot;)" style="shape=document;whiteSpace=wrap;html=1;boundedLbl=1;" parent="1" vertex="1">
          <mxGeometry x="570" y="1250" width="280" height="80" as="geometry" />
        </mxCell>
        <mxCell id="yHt8rNILdFimbdH17l5O-150" value="print(&quot;Se agregó la tupla1&quot;)" style="shape=document;whiteSpace=wrap;html=1;boundedLbl=1;" parent="1" vertex="1">
          <mxGeometry x="575" y="1630" width="210" height="80" as="geometry" />
        </mxCell>
        <mxCell id="yHt8rNILdFimbdH17l5O-151" value="print(&quot;Se removió Auxiliar&quot;)" style="shape=document;whiteSpace=wrap;html=1;boundedLbl=1;" parent="1" vertex="1">
          <mxGeometry x="617" y="1890" width="210" height="80" as="geometry" />
        </mxCell>
        <mxCell id="yHt8rNILdFimbdH17l5O-152" value="print(&quot;Se agregó diccionario&quot;)" style="shape=document;whiteSpace=wrap;html=1;boundedLbl=1;" parent="1" vertex="1">
          <mxGeometry x="660" y="2160" width="210" height="80" as="geometry" />
        </mxCell>
        <mxCell id="yHt8rNILdFimbdH17l5O-153" value="print(&quot;Se agregó el contrato&quot;)" style="shape=document;whiteSpace=wrap;html=1;boundedLbl=1;" parent="1" vertex="1">
          <mxGeometry x="590" y="2380" width="240" height="80" as="geometry" />
        </mxCell>
        <mxCell id="yHt8rNILdFimbdH17l5O-154" value="print(&quot;Se agregó practicante&quot;)" style="shape=document;whiteSpace=wrap;html=1;boundedLbl=1;" parent="1" vertex="1">
          <mxGeometry x="607.5" y="2630" width="252.5" height="80" as="geometry" />
        </mxCell>
        <mxCell id="yHt8rNILdFimbdH17l5O-155" value="print(&quot;Se agregó Lucía&quot;)" style="shape=document;whiteSpace=wrap;html=1;boundedLbl=1;" parent="1" vertex="1">
          <mxGeometry x="625" y="2860" width="210" height="80" as="geometry" />
        </mxCell>
      </root>
    </mxGraphModel>
  </diagram>
</mxfile>
